<svg width="39" height="44" viewBox="0 0 39 44" fill="none" xmlns="http://www.w3.org/2000/svg">
<path fill-rule="evenodd" clip-rule="evenodd" d="M23.8193 15.6426C25.0461 15.0277 26.6071 14.1227 28.17 12.8826C28.4995 13.5704 28.5356 14.1706 28.3658 14.6553C28.2455 14.9968 28.0188 15.2939 27.7207 15.5303C27.3978 15.7857 26.9947 15.9717 26.549 16.0722C25.7033 16.2636 24.7159 16.1518 23.8193 15.6426ZM24.032 21.9424L25.656 22.8853C22.3402 24.7532 21.4388 28.2217 20.368 31.6C19.2973 28.2217 18.3958 24.7532 15.0801 22.8853L16.7041 21.9424C16.8612 21.8827 16.9954 21.7746 17.0876 21.6336C17.1798 21.4925 17.2253 21.3257 17.2174 21.1571C17.0686 17.9932 17.9185 16.594 19.065 15.7156C19.4762 15.4009 19.9251 15.2429 20.368 15.2429C20.8109 15.2429 21.2598 15.4009 21.6711 15.7156C22.8175 16.594 23.6675 17.9932 23.5187 21.1571C23.5108 21.3257 23.5562 21.4925 23.6485 21.6336C23.7407 21.7746 23.8749 21.8827 24.032 21.9424ZM20.368 1.28357C22.2451 1.33422 24.1269 1.7005 25.7601 2.41304C26.8911 2.9071 27.9463 3.55971 28.9019 4.3401C29.3334 4.6924 29.6887 5.03275 30.0802 5.42456C31.1358 5.46124 32.6786 4.28246 33.3949 3.17946C32.1622 7.2413 26.5372 12.038 22.643 13.8734C22.6414 13.8727 22.6403 13.8718 22.6391 13.871C21.9402 13.3346 21.1542 13.0664 20.368 13.0664C19.5818 13.0664 18.7959 13.3346 18.097 13.871C18.0958 13.8717 18.0947 13.8729 18.0931 13.8734C14.1987 12.038 8.57386 7.2413 7.34119 3.17946C8.05731 4.28246 9.60012 5.46124 10.6558 5.42456C11.0474 5.03288 11.4027 4.6924 11.8341 4.3401C12.7896 3.55971 13.8449 2.9071 14.9758 2.41304C16.6091 1.7005 18.491 1.33422 20.368 1.28357ZM16.9166 15.6426C15.69 15.0277 14.1288 14.1227 12.5661 12.8826C12.2366 13.5704 12.2005 14.1706 12.3701 14.6553C12.4906 14.9968 12.7173 15.2939 13.0153 15.5303C13.3382 15.7857 13.7414 15.9717 14.1871 16.0722C15.0328 16.2636 16.02 16.1518 16.9166 15.6426Z" fill="white"/>
<path fill-rule="evenodd" clip-rule="evenodd" d="M30.1784 11.2292C31.0656 10.3478 31.8473 9.37231 32.4759 8.5018L32.7952 9.09331C33.823 11.1175 34.357 13.1336 34.357 15.4025L34.3548 19.0029L34.3741 20.8693C34.4486 25.4513 35.4557 30.0871 37.7371 34.3296L32.9638 30.5406L29.5863 35.9359L26.038 32.6478L20.368 41.7055L14.6979 32.6479L11.1498 35.936L7.77232 30.5408L2.99884 34.3298C5.28026 30.0873 6.2874 25.4514 6.36198 20.8694L6.38127 19.003L6.37907 15.4026C6.37907 13.1336 6.91296 11.1175 7.94105 9.09345L8.26017 8.50194C8.88877 9.37244 9.67038 10.3478 10.5577 11.2293L10.2806 11.7959C9.74234 12.8963 9.5641 14.1267 9.98344 15.2968C10.2538 16.0505 10.7471 16.6968 11.3832 17.1902C12.0007 17.6693 12.7316 17.9923 13.4968 18.1619C13.9953 18.2724 14.5031 18.3178 15.0077 18.3024C14.8899 18.9593 14.8385 19.6406 14.8352 20.3349L10.3325 22.895L13.8071 24.8123C14.0849 24.9655 14.3492 25.1411 14.5976 25.3373C17.4622 27.8691 19.1845 35.3593 20.3681 39.0179C21.5518 35.3593 23.274 27.8691 26.1388 25.3373C26.3871 25.1411 26.6515 24.9655 26.9292 24.8123L30.4039 22.895L25.901 20.3349C25.8977 19.6406 25.8463 18.9593 25.7286 18.3024C26.2331 18.3178 26.7409 18.2724 27.2394 18.1619C28.0046 17.9923 28.7356 17.6693 29.3531 17.1902C29.989 16.6968 30.4825 16.0505 30.7527 15.2968C31.1721 14.1267 30.9938 12.8964 30.4556 11.7959L30.1785 11.2293L30.1784 11.2292Z" fill="white"/>
</svg>
