<svg width="40" height="33" viewBox="0 0 40 33" fill="none" xmlns="http://www.w3.org/2000/svg">
<path d="M1.84301 15.0081C1.93296 14.9631 2.02295 14.9203 2.11065 14.8799C3.6353 14.1735 5.18019 13.5122 6.72283 12.8509C6.80603 12.8509 6.94542 12.7542 7.02412 12.7227C7.14331 12.671 7.26251 12.6215 7.38169 12.5697C7.61106 12.4708 7.84045 12.374 8.06757 12.2751C8.52631 12.0794 8.98278 11.8837 9.44152 11.688L12.1872 10.5115C14.0177 9.72872 15.8505 8.94368 17.681 8.16089C19.5114 7.37809 21.3441 6.59305 23.1746 5.81025C25.0051 5.02746 26.8378 4.24243 28.6683 3.45964C30.4988 2.67684 32.3315 1.8918 34.162 1.109C34.569 0.93355 35.0098 0.672613 35.446 0.596133C35.8126 0.5309 36.1701 0.40494 36.5389 0.335208C37.2382 0.202493 38.0096 0.148512 38.6797 0.438686C38.9113 0.539909 39.1249 0.68162 39.3026 0.859323C40.1526 1.7006 40.0334 3.08173 39.8535 4.26491C38.601 12.5112 37.3484 20.7598 36.0936 29.0061C35.9227 30.1376 35.6889 31.3793 34.7961 32.0946C34.0405 32.6997 32.9656 32.7671 32.0324 32.5107C31.0992 32.252 30.2761 31.7099 29.4688 31.1768C26.1205 28.9589 22.7699 26.741 19.4215 24.5231C18.6254 23.9967 17.7394 23.3084 17.7484 22.3524C17.7529 21.7765 18.0969 21.2637 18.4478 20.8071C21.3576 17.0101 25.556 14.4007 28.6795 10.7792C29.1203 10.2686 29.4666 9.34633 28.8617 9.05165C28.5019 8.8762 28.0881 9.11463 27.7598 9.34182C23.6311 12.2098 19.5047 15.0801 15.376 17.9481C14.029 18.8838 12.6168 19.8466 10.9932 20.076C9.5405 20.2829 8.07882 19.878 6.67336 19.4641C5.49502 19.1177 4.31889 18.7623 3.14729 18.3957C2.52439 18.2022 1.88124 17.993 1.40001 17.5544C0.918782 17.1158 0.642224 16.378 0.932312 15.7931C1.11446 15.4265 1.46752 15.1948 1.83856 15.0058L1.84301 15.0081Z" fill="#FEFFFC"/>
</svg>
