<svg width="24" height="24" viewBox="0 0 24 24" fill="none" xmlns="http://www.w3.org/2000/svg">
<path d="M15 4.25241C15 3.17381 13.7255 2.6016 12.9195 3.31826L8.42794 7.31142C8.29065 7.43348 8.11333 7.50091 7.92961 7.50091H4.25C3.00736 7.50091 2 8.50824 2 9.75085V14.2486C2 15.4912 3.00736 16.4986 4.25 16.4986H7.92956C8.11329 16.4986 8.29063 16.566 8.42793 16.6881L12.9194 20.6817C13.7255 21.3984 15 20.8263 15 19.7476V4.25241ZM18.9916 5.89969C19.3244 5.65316 19.7941 5.72314 20.0407 6.05598C21.2717 7.71801 22 9.77616 22 12.0022C22 14.2282 21.2717 16.2864 20.0407 17.9484C19.7941 18.2813 19.3244 18.3513 18.9916 18.1047C18.6587 17.8582 18.5888 17.3885 18.8353 17.0557C19.8815 15.6432 20.5 13.896 20.5 12.0022C20.5 10.1084 19.8815 8.36127 18.8353 6.94874C18.5888 6.6159 18.6587 6.14622 18.9916 5.89969ZM17.143 8.37163C17.5072 8.17444 17.9624 8.30988 18.1596 8.67413C18.6958 9.66471 19 10.799 19 12.0022C19 13.2054 18.6958 14.3397 18.1596 15.3303C17.9624 15.6945 17.5072 15.83 17.143 15.6328C16.7787 15.4356 16.6432 14.9804 16.8404 14.6162C17.2609 13.8394 17.5 12.9499 17.5 12.0022C17.5 11.0545 17.2609 10.1649 16.8404 9.3882C16.6432 9.02395 16.7787 8.56881 17.143 8.37163Z" fill="white"/>
</svg>
